<?xml version="1.0" encoding="utf-8"?>
<!-- Generator: Adobe Illustrator 23.0.1, SVG Export Plug-In . SVG Version: 6.00 Build 0)  -->
<svg version="1.1" id="Layer_1" xmlns="http://www.w3.org/2000/svg" xmlns:xlink="http://www.w3.org/1999/xlink" x="0px" y="0px"
	 viewBox="0 0 181 209" style="enable-background:new 0 0 181 209;" xml:space="preserve">
<style type="text/css">
	.st0{clip-path:url(#SVGID_2_);}
	.st1{fill:none;stroke:#99A5AB;stroke-width:10.6698;stroke-linecap:round;stroke-linejoin:round;stroke-miterlimit:10;}
	.st2{fill:#FFFFFF;}
	.st3{font-family:'Courier';}
	.st4{font-size:32px;}
</style>
<g id="surface2602">
	<g>
		<g>
			<defs>
				<polygon id="SVGID_1_" points="6.7,152.9 90.5,201.3 174.3,152.9 174.3,56.1 90.5,7.7 6.7,56.1 				"/>
			</defs>
			<clipPath id="SVGID_2_">
				<use xlink:href="#SVGID_1_"  style="overflow:visible;"/>
			</clipPath>
			<g class="st0">
			</g>
		</g>
		<polygon class="st1" points="6.7,152.9 90.5,201.3 174.3,152.9 174.3,56.1 90.5,7.7 6.7,56.1 		"/>
	</g>
	<g transform="translate(0.000000,853.000000) scale(0.100000,-0.100000)">
		<path d="M630.7,7772.7c-86.6-47.9-162.5-122.4-213.4-209.4c-10.5-17.7-29.6-57.3-37-76.1c-22.2-56.7-35.2-117.5-38.4-178.5
			l-1-20.3l-67.9-0.3l-67.9-0.4v-5.2v-5.2l67.9-0.4l67.9-0.3l1-21.1c5.6-120.5,47.6-232.4,122.7-326.7c18.9-23.7,64.5-69.7,86-86.6
			c31.4-24.6,56.3-41.1,89.7-59.4c17.4-9.4,19-10,28-10h9.6l-21.4,10.8c-164.1,82.6-276.6,238.9-301.8,419.3
			c-2.2,16.2-5.9,59.5-6,72.6c0,0.6,17.1,1,38.1,1h38l1-19.4c7.5-143.5,75.4-271.6,190-359.1c73.5-56.1,162.6-89.3,257.6-96
			l26.1-1.8v-13.7v-13.7h5.9h5.9v13.7v13.7l24.7,1.8c67.6,4.9,122.3,19.4,180.7,48.2c49.5,24.5,86.9,51.1,126.4,90.3
			c54.9,54.4,94.4,117.8,118,190.2c14.1,42.9,20.9,80.3,23.9,128.7l0.9,17.2h37.7h37.6l-0.9-23.9c-3.2-85.7-29.9-176.2-74.8-252.5
			c-24-40.9-51.4-76-87.3-111.9c-44.9-44.9-83.8-73.4-140.1-102.5l-25-12.8l9-0.1c8.1,0,10.8,0.9,23.6,7.5
			c51.7,27,95.9,59.7,138.5,102.1c101.2,101.3,157.5,229,165,374.7l1,19.4h67.5h67.6v5.9v5.9h-67.6h-67.5l-1,16.6
			c-5.2,86.2-24.2,158.6-59.8,228.6c-27.7,54.6-57.3,95.9-100.2,139.8c-40.2,41.2-76.9,69.5-126.5,97.9c-16.9,9.6-19,10.5-26.5,10.3
			c-9.7,0-10.6,0.7,15.3-13.3c136.1-73.6,237-204.3,274-354.8c8.8-36.2,15.5-83.5,15.5-111.5v-13.7h-37.6h-37.6v3.5
			c0,8.1-3.1,42.6-5.3,57.6c-6.8,48.6-23,100.2-45.7,145.2c-66.9,133.7-191.9,228.4-338.6,256.7c-22.2,4.3-57.6,8.2-73.5,8.2h-11
			l-0.4,10.8l-0.4,10.6h-5.2h-5.2l-0.4-10.5l-0.4-10.5l-20.6-0.9c-23.4-1.2-54.9-5.4-78.7-10.8c-181.5-40.8-323.5-183.1-363.5-364.4
			c-5.3-23.7-8.1-44-10.2-71.7l-1.8-24h-37.9h-37.9l0.6,14.4c6.8,132.9,53.6,248.6,140.7,347.2c43.6,49.5,103.5,95.9,160.1,124.3
			c6.6,3.4,12.1,6.3,12.1,6.8s-3.5,0.7-7.8,0.7C647.8,7781.7,644.7,7780.5,630.7,7772.7z M899.5,7714.2v-38.1l-18.1-0.9
			c-65.8-3.4-137.1-27-193.2-63.9c-59.2-39.2-106.9-93.1-137.7-155.7c-23.9-48.8-35.6-91.5-40.1-146.3l-1.6-21.1h-38.1h-38l0.6,5.6
			c0.4,2.9,1.2,12.8,1.6,21.7c3.8,72.8,31.2,154.8,73.9,220.8c61,94.1,157.6,166.3,263.2,196.6c38.7,11,83.2,18.3,119.2,19.1
			l8.4,0.1V7714.2z M962.2,7748.5c86-10.3,164.8-43.2,236.1-98.2c19.4-15.2,58.9-54.4,75.3-74.8c61-76.4,98.1-172.9,102.7-266.9
			l0.9-20.3h-37.7h-37.6l-0.9,11.5c-1.9,23.7-5.4,50.2-9.1,66.6c-16.9,76.1-56.3,145.7-113.6,200.3c-46.2,44-102.7,76.4-164.1,94.1
			c-28.9,8.2-70,14.9-92.9,14.9h-10v38.4v38.6l16.6-1C936.9,7751,952.4,7749.6,962.2,7748.5z M899.5,7635.1V7602h-8
			c-10.8,0-39.3-3.8-56.9-7.5c-44.9-9.7-95-34-132.6-64.2c-14.6-11.8-42.7-40.8-53.9-55.8c-20.3-27-36.7-57.7-47.4-89.3
			c-9.4-27.1-14-50.5-17.4-86.9l-0.9-10H550h-32.7l0.9,17.4c5.2,91.6,46,181.9,112.5,248.5c49.8,49.8,113.9,86,180.7,102.4
			c27,6.6,57.4,11,80.4,11.6l7.7,0.1V7635.1z M952.5,7665.2c42.7-5,83.4-17.2,124.5-37.4c117.8-57.9,198.3-171.7,213.6-302.5
			c1.2-10.2,2.2-22.7,2.2-27.7v-9.3h-32.3c-36.4,0-34-0.9-34,12.5c0,13-4.3,39.8-9.6,60.4c-28.3,110-114.3,197.8-224.2,228.9
			c-19.7,5.6-45.2,10-65.8,11.3l-15.6,1v33.1v33.1l14.4-1C933.5,7667.1,945.6,7666,952.5,7665.2z M899.5,7429.1v-88.8l-5.6-1
			c-9.6-1.5-26.1-10.8-32.6-18c-6.9-8-13.1-19.7-14.4-27.4l-0.9-5.6h-89.4h-89.6l0.7,7.1c4,46,16.5,82.6,40.1,117.4
			c33.7,50.2,85.6,85.9,144.5,99.3c15.3,3.5,29.3,5.6,40.2,5.9l6.9,0.1V7429.1z M951.8,7513.5c30.8-6.2,60.1-18.6,87.6-36.8
			c19.9-13.1,49.2-42.9,63.2-63.6c23-34.8,36.7-73.2,39.3-111.1l1-13.7h-89.1h-89.3l-1,5.6c-3.8,20.6-25.3,41.7-46.2,45.2l-5.6,0.9
			l-0.9,44.3c-1.3,56.3-1.3,110.9,0,124l0.9,10l12.7-0.9C931.3,7516.8,943.7,7515.1,951.8,7513.5z M899.5,7310.3v-22.1h-22.8
			c-13.7,0-22.8,0.6-22.8,1.5c0,0.7,1.3,5,2.9,9.4c5.3,14,18.7,26.4,34.3,31.1c3.4,1.2,6.6,2.1,7.4,2.1
			C899,7332.4,899.5,7322.6,899.5,7310.3z M926.9,7327.3c4.1-1.8,10.2-5.7,13.4-8.7c5.9-5.3,14-18.7,15.8-26.2l0.9-4.1h-22.8h-22.8
			v22.1v22.1l4.1-0.9C917.6,7331.1,922.7,7329.2,926.9,7327.3z M509.7,7259.2c5.9-99.1,45.4-187.5,115-257.6
			c69.7-70,158.9-110.2,258.2-116.4l16.5-1v-37.9v-37.9l-11.3,0.6c-114,5.6-210.9,44.3-295.3,117.8
			c-90.3,78.5-150.7,199.4-158,316.4c-0.4,7.4-1.2,17.7-1.6,23.3l-0.7,9.9h38.1h38.1L509.7,7259.2z M583.5,7262.9
			c4.4-60.2,21.1-110.9,52.1-158.5c31.7-48.3,75-86.6,126.4-112.1c38.9-19.3,78.9-30,123.9-33.3l13.6-1v-32.8v-32.7l-11.3,0.6
			c-62.6,3.2-123.4,20.8-175.4,50.7c-70.7,40.7-129.3,105.3-161.6,178.1c-17.8,40.2-30,87.6-32.4,125.9c-0.4,8.1-1.2,17.8-1.6,21.8
			l-0.7,6.9h33.1h33L583.5,7262.9z M846.5,7268.8c4.6-22.1,21.7-40.2,43.5-46.1l9.6-2.7v-89v-89l-9.1,0.9
			c-64.8,6.3-110.5,27.2-152.9,69.8c-19.3,19.3-31.2,35.2-43.2,57.6c-12.8,24-23.3,58.5-25.3,83.1c-0.4,5.7-1.2,13.3-1.6,16.8
			l-0.7,6.2h89.1h89.1L846.5,7268.8z M899.5,7252.8v-23.9l-5.3,0.9c-18.6,3.1-36.7,21.7-39.8,40.7l-1,6h23.1h23V7252.8z M956.2,7271
			c-1.6-9.3-7.4-20.3-14-27c-6.5-6.5-21.9-14.7-27.5-14.7c-3.4,0-3.4,0.1-3.4,23.6v23.6h23h23L956.2,7271z M1142.1,7261.4
			c-2.2-38.9-18.6-84.4-42.7-118.6c-11.5-16.2-36.2-41.5-52.1-53.2c-37.4-27.4-77.5-42.3-125.8-46.5l-9.9-0.9l-1,14.3
			c-0.6,7.8-0.6,47.9,0,89l1.2,74.5l8.8,2.5c4.9,1.3,11.6,4.1,15,6.2c13.1,7.7,25.8,25.3,28.1,38.9c0.4,2.8,1,6,1.3,7.1
			c0.6,1.3,19.6,1.8,89.3,1.8h88.7L1142.1,7261.4z M1292.3,7257.8c-1.2-24.9-4.4-46.4-11.3-73.5c-7.2-28.4-13.7-45.8-28-75
			c-37-76-98.7-137.9-175.4-175.9c-46-22.8-97.2-37-142.7-39.3c-8.5-0.4-17.2-1-19.4-1.3l-4.1-0.6v32.8v33l13,1
			c33.7,2.5,69.7,10.3,96.5,20.8c110,43.2,186.5,139.2,203.4,255.5c1.3,8.7,2.4,19.3,2.4,23.9c0,4.4,0.4,10.2,0.9,12.7l1,4.6h32.4
			h32.4L1292.3,7257.8z M1376.7,7263.4c0-49.2-14.7-115.2-37.6-168.8c-40.7-94.9-113.9-175.9-205.2-226.8
			c-58-32.4-133-54.4-195.5-57.4c-8.8-0.4-18.7-1.2-21.7-1.6l-5.6-0.6v38v38l22.8,1.8c46.8,3.7,87.8,13.8,129.6,32
			c83.7,36.4,153.3,102.1,194.1,183.1c26.7,52.9,38.9,98.5,43.2,161.3l0.9,14.3h37.4h37.4V7263.4z"/>
	</g>
	<text transform="matrix(1 0 0 1 32.8904 66.2241)" class="st2 st3 st4">trackR</text>
</g>
</svg>
